<svg width="71" height="71" viewBox="0 0 71 71" fill="none" xmlns="http://www.w3.org/2000/svg">
<rect x="1" y="1" width="69" height="69" rx="7" fill="url(#paint0_linear_123_300)" stroke="#44A6F5" stroke-width="2"/>
<g filter="url(#filter0_f_123_300)">
<path d="M34.6667 37.1667C35.1677 37.8365 35.8069 38.3908 36.541 38.7918C37.2751 39.1929 38.0868 39.4313 38.9211 39.4911C39.7554 39.5508 40.5929 39.4305 41.3766 39.1381C42.1603 38.8458 42.872 38.3883 43.4634 37.7967L46.9634 34.2967C48.0259 33.1965 48.6139 31.723 48.6006 30.1935C48.5873 28.6641 47.9738 27.201 46.8923 26.1194C45.8107 25.0379 44.3477 24.4244 42.8182 24.4111C41.2887 24.3978 39.8152 24.9858 38.715 26.0484L36.7084 28.0434" stroke="#44A6F5" stroke-width="2" stroke-linecap="round" stroke-linejoin="round"/>
<path d="M39.3333 34.8334C38.8323 34.1636 38.1931 33.6094 37.459 33.2083C36.725 32.8073 35.9132 32.5688 35.0789 32.509C34.2446 32.4493 33.4071 32.5697 32.6234 32.862C31.8397 33.1544 31.128 33.6119 30.5367 34.2034L27.0367 37.7034C25.9741 38.8036 25.3861 40.2771 25.3994 41.8066C25.4127 43.3361 26.0262 44.7992 27.1077 45.8807C28.1893 46.9623 29.6523 47.5757 31.1818 47.589C32.7113 47.6023 34.1848 47.0144 35.285 45.9518L37.28 43.9568" stroke="#44A6F5" stroke-width="2" stroke-linecap="round" stroke-linejoin="round"/>
</g>
<path d="M34.6667 37.1667C35.1677 37.8365 35.8069 38.3908 36.541 38.7918C37.2751 39.1929 38.0868 39.4313 38.9211 39.4911C39.7554 39.5508 40.5929 39.4305 41.3766 39.1381C42.1603 38.8458 42.872 38.3883 43.4634 37.7967L46.9634 34.2967C48.0259 33.1965 48.6139 31.723 48.6006 30.1935C48.5873 28.6641 47.9738 27.201 46.8923 26.1194C45.8107 25.0379 44.3477 24.4244 42.8182 24.4111C41.2887 24.3978 39.8152 24.9858 38.715 26.0484L36.7084 28.0434" stroke="#44A6F5" stroke-width="2" stroke-linecap="round" stroke-linejoin="round"/>
<path d="M39.3333 34.8334C38.8323 34.1636 38.1931 33.6094 37.459 33.2083C36.725 32.8073 35.9132 32.5688 35.0789 32.509C34.2446 32.4493 33.4071 32.5697 32.6234 32.862C31.8397 33.1544 31.128 33.6119 30.5367 34.2034L27.0367 37.7034C25.9741 38.8036 25.3861 40.2771 25.3994 41.8066C25.4127 43.3361 26.0262 44.7992 27.1077 45.8807C28.1893 46.9623 29.6523 47.5757 31.1818 47.589C32.7113 47.6023 34.1848 47.0144 35.285 45.9518L37.28 43.9568" stroke="#44A6F5" stroke-width="2" stroke-linecap="round" stroke-linejoin="round"/>
<defs>
<filter id="filter0_f_123_300" x="19" y="18" width="36" height="36" filterUnits="userSpaceOnUse" color-interpolation-filters="sRGB">
<feFlood flood-opacity="0" result="BackgroundImageFix"/>
<feBlend mode="normal" in="SourceGraphic" in2="BackgroundImageFix" result="shape"/>
<feGaussianBlur stdDeviation="2" result="effect1_foregroundBlur_123_300"/>
</filter>
<linearGradient id="paint0_linear_123_300" x1="69.5" y1="69" x2="3.5" y2="1.99999" gradientUnits="userSpaceOnUse">
<stop stop-color="#192B47"/>
<stop offset="0.947917" stop-color="#29487D" stop-opacity="0.8"/>
</linearGradient>
</defs>
</svg>
