<svg width="71" height="71" viewBox="0 0 71 71" fill="none" xmlns="http://www.w3.org/2000/svg">
<rect x="1" y="1" width="69" height="69" rx="7" fill="url(#paint0_linear_126_358)" stroke="#44A6F5" stroke-width="2"/>
<g filter="url(#filter0_f_126_358)">
<path d="M49.8334 30.1667L41.6667 36.0001L49.8334 41.8334V30.1667Z" stroke="#44A6F5" stroke-width="2" stroke-linecap="round" stroke-linejoin="round"/>
<path d="M39.3334 27.8333H26.5C25.2114 27.8333 24.1667 28.8779 24.1667 30.1666V41.8333C24.1667 43.1219 25.2114 44.1666 26.5 44.1666H39.3334C40.622 44.1666 41.6667 43.1219 41.6667 41.8333V30.1666C41.6667 28.8779 40.622 27.8333 39.3334 27.8333Z" stroke="#44A6F5" stroke-width="2" stroke-linecap="round" stroke-linejoin="round"/>
</g>
<path d="M49.8334 30.1667L41.6667 36.0001L49.8334 41.8334V30.1667Z" stroke="#44A6F5" stroke-width="2" stroke-linecap="round" stroke-linejoin="round"/>
<path d="M39.3334 27.8333H26.5C25.2114 27.8333 24.1667 28.8779 24.1667 30.1666V41.8333C24.1667 43.1219 25.2114 44.1666 26.5 44.1666H39.3334C40.622 44.1666 41.6667 43.1219 41.6667 41.8333V30.1666C41.6667 28.8779 40.622 27.8333 39.3334 27.8333Z" stroke="#44A6F5" stroke-width="2" stroke-linecap="round" stroke-linejoin="round"/>
<defs>
<filter id="filter0_f_126_358" x="19" y="18" width="36" height="36" filterUnits="userSpaceOnUse" color-interpolation-filters="sRGB">
<feFlood flood-opacity="0" result="BackgroundImageFix"/>
<feBlend mode="normal" in="SourceGraphic" in2="BackgroundImageFix" result="shape"/>
<feGaussianBlur stdDeviation="2" result="effect1_foregroundBlur_126_358"/>
</filter>
<linearGradient id="paint0_linear_126_358" x1="69.5" y1="69" x2="3.5" y2="1.99999" gradientUnits="userSpaceOnUse">
<stop stop-color="#192B47"/>
<stop offset="0.947917" stop-color="#29487D" stop-opacity="0.8"/>
</linearGradient>
</defs>
</svg>
