<svg width="40" height="40" viewBox="0 0 40 40" fill="none" xmlns="http://www.w3.org/2000/svg">
<path d="M25.8334 12.5L31.6667 6.66671M35 3.33337L31.6667 6.66671L35 3.33337ZM18.9834 19.35C19.8439 20.1992 20.528 21.2101 20.9963 22.3247C21.4645 23.4393 21.7077 24.6355 21.7117 25.8444C21.7158 27.0534 21.4807 28.2512 21.0199 29.3689C20.5591 30.4866 19.8818 31.5021 19.0269 32.3569C18.1721 33.2118 17.1566 33.8891 16.0389 34.3499C14.9212 34.8107 13.7234 35.0458 12.5144 35.0418C11.3055 35.0377 10.1093 34.7946 8.99468 34.3263C7.88009 33.858 6.86914 33.1739 6.02003 32.3134C4.35025 30.5845 3.4263 28.269 3.44718 25.8655C3.46807 23.4621 4.43212 21.1629 6.13169 19.4634C7.83127 17.7638 10.1304 16.7997 12.5339 16.7789C14.9373 16.758 17.2528 17.6819 18.9817 19.3517L18.9834 19.35ZM18.9834 19.35L25.8334 12.5L18.9834 19.35ZM25.8334 12.5L30.8334 17.5L36.6667 11.6667L31.6667 6.66671L25.8334 12.5Z" stroke="#44A6F5" stroke-width="2" stroke-linecap="round" stroke-linejoin="round"/>
</svg>
