<svg width="22" height="22" viewBox="0 0 22 22" fill="none" xmlns="http://www.w3.org/2000/svg">
<g clip-path="url(#clip0_33_3329)">
<path d="M10.9993 19.3334C15.6017 19.3334 19.3327 15.6025 19.3327 11.0001C19.3327 6.39774 15.6017 2.66678 10.9993 2.66678C6.39698 2.66678 2.66602 6.39774 2.66602 11.0001C2.66602 15.6025 6.39698 19.3334 10.9993 19.3334Z" stroke="white" stroke-width="1.5" stroke-linecap="round" stroke-linejoin="round"/>
<path d="M2.66602 11.0002H19.3327" stroke="white" stroke-width="1.5" stroke-linecap="round" stroke-linejoin="round"/>
<path d="M10.9993 2.66678C13.0837 4.94874 14.2683 7.91014 14.3327 11.0001C14.2683 14.0901 13.0837 17.0515 10.9993 19.3334C8.91495 17.0515 7.73039 14.0901 7.66602 11.0001C7.73039 7.91014 8.91495 4.94874 10.9993 2.66678V2.66678Z" stroke="white" stroke-width="1.35467" stroke-linecap="round" stroke-linejoin="round"/>
</g>
<defs>
<clipPath id="clip0_33_3329">
<rect width="20" height="20" fill="white" transform="translate(0.99939 1.00015)"/>
</clipPath>
</defs>
</svg>
