<svg width="122" height="70" viewBox="0 0 122 70" fill="none" xmlns="http://www.w3.org/2000/svg">
<path d="M32.854 38.6363L32.8634 43.8957L38.121 43.8877L38.1116 38.6282L32.854 38.6363Z" fill="#2397F5"/>
<path d="M32.8616 43.8903L32.871 49.1497L38.1286 49.1417L38.1192 43.8823L32.8616 43.8903Z" fill="#44A6F5"/>
<path d="M24.8809 20.1722L24.8903 25.4317L30.1479 25.4236L30.1385 20.1642L24.8809 20.1722Z" fill="#BABCBE"/>
<path d="M30.1385 20.1605L30.1479 25.4199L35.4055 25.4119L35.3962 20.1525L30.1385 20.1605Z" fill="#A6A6AA"/>
<path d="M27.6206 43.9046L27.63 49.1641L32.8876 49.156L32.8782 43.8966L27.6206 43.9046Z" fill="#2397F5"/>
<path d="M30.1498 25.4234L30.1592 30.6828L35.4168 30.6747L35.4075 25.4153L30.1498 25.4234Z" fill="#919396"/>
<path d="M32.849 33.3761L32.8584 38.6355L38.116 38.6274L38.1066 33.368L32.849 33.3761Z" fill="#0089DF"/>
<path d="M22.3499 43.9101L22.3593 49.1695L27.6169 49.1615L27.6075 43.9021L22.3499 43.9101Z" fill="#0089DF"/>
<path d="M9.11893 30.7181L9.12831 35.9775L14.3859 35.9695L14.3766 30.71L9.11893 30.7181Z" fill="#CFD0D1"/>
<path d="M9.11458 35.9758L9.12396 41.2352L14.3816 41.2271L14.3722 35.9677L9.11458 35.9758Z" fill="#BABCBE"/>
<path d="M14.3824 41.2243L14.3918 46.4837L19.6495 46.4756L19.6401 41.2162L14.3824 41.2243Z" fill="#919396"/>
<path d="M9.13521 41.2323L9.14459 46.4918L14.4022 46.4837L14.3928 41.2243L9.13521 41.2323Z" fill="#A6A6AA"/>
<path d="M9.0983 25.4578L9.10768 30.7172L14.3653 30.7092L14.3559 25.4498L9.0983 25.4578Z" fill="#F0F0F0"/>
<path d="M24.8739 25.4288L24.8833 30.6882L30.1409 30.6802L30.1315 25.4208L24.8739 25.4288Z" fill="#A6A6AA"/>
<path d="M24.8971 30.6865L24.9065 35.9459L30.1642 35.9378L30.1548 30.6784L24.8971 30.6865Z" fill="#919396"/>
<path d="M19.6319 25.4406L19.6413 30.7L24.8989 30.6919L24.8895 25.4325L19.6319 25.4406Z" fill="#BABCBE"/>
<path d="M24.9084 35.9494L24.9178 41.2088L30.1755 41.2008L30.1661 35.9414L24.9084 35.9494Z" fill="#808083"/>
<path d="M14.3447 20.1884L14.3541 25.4478L19.6117 25.4397L19.6023 20.1803L14.3447 20.1884Z" fill="#F0F0F0"/>
<path d="M19.605 20.1777L19.6144 25.4371L24.872 25.4291L24.8626 20.1697L19.605 20.1777Z" fill="#CFD0D1"/>
<path d="M14.3905 35.9666L14.3998 41.226L19.6575 41.2179L19.6481 35.9585L14.3905 35.9666Z" fill="#A6A6AA"/>
<path d="M19.6326 35.9585L19.6419 41.2179L24.8996 41.2099L24.8902 35.9504L19.6326 35.9585Z" fill="#919396"/>
<path d="M14.3636 30.7037L14.3729 35.9631L19.6306 35.9551L19.6212 30.6957L14.3636 30.7037Z" fill="#BABCBE"/>
<path d="M35.4298 46.4451L35.4298 46.4638L35.4481 46.4638L35.448 46.4451L35.4298 46.4451Z" fill="#A6A6AA"/>
<path d="M9.08807 20.1975L9.09746 25.4569L14.3551 25.4489L14.3457 20.1894L9.08807 20.1975Z" fill="white"/>
<path d="M50.7373 32.0442C49.8602 32.0442 49.2595 32.4164 48.9316 33.1607C48.762 33.555 48.6773 34.0561 48.6773 34.6678V40.0182H46.1013V30.1502H48.5962V31.591C48.9279 31.0825 49.2448 30.7177 49.5396 30.4929C50.0702 30.0949 50.7446 29.896 51.5627 29.896C52.5835 29.896 53.42 30.165 54.0723 30.6993C54.7246 31.2336 55.0489 32.1216 55.0489 33.3597V40.0182H52.3993V34.0045C52.3993 33.485 52.3292 33.087 52.1892 32.807C51.9349 32.2985 51.4522 32.0442 50.7373 32.0442Z" fill="white"/>
<path d="M65.8942 37.1109C65.8279 37.6968 65.522 38.2937 64.9766 38.898C64.129 39.8597 62.9461 40.3388 61.4204 40.3388C60.1638 40.3388 59.0546 39.9334 58.0928 39.1228C57.1309 38.3121 56.6519 36.993 56.6519 35.169C56.6519 33.4592 57.0867 32.1474 57.9527 31.2336C58.8187 30.3198 59.9464 29.8628 61.332 29.8628C62.1538 29.8628 62.8945 30.0176 63.5541 30.3271C64.2138 30.6366 64.7592 31.123 65.1866 31.7863C65.5736 32.3722 65.8242 33.0539 65.9384 33.8277C66.0047 34.2809 66.0305 34.9331 66.0195 35.788H59.2536C59.2904 36.7792 59.6 37.4757 60.1896 37.8736C60.5471 38.1205 60.9745 38.2458 61.4794 38.2458C62.0101 38.2458 62.4449 38.0947 62.7766 37.7926C62.9571 37.6304 63.1193 37.402 63.2556 37.1109H65.8942ZM63.3367 34.082C63.2925 33.4003 63.0861 32.8807 62.7139 32.527C62.3417 32.1732 61.8811 31.9963 61.332 31.9963C60.735 31.9963 60.2707 32.1843 59.939 32.5601C59.611 32.936 59.401 33.4445 59.3162 34.082H63.333H63.3367Z" fill="white"/>
<path d="M72.7339 32.5159C71.6947 32.5159 70.9945 32.8549 70.637 33.5329C70.438 33.9124 70.3385 34.502 70.3385 35.2942V40.0182H67.7368V30.1318H70.2059V31.8563C70.6039 31.1967 70.954 30.7472 71.2488 30.504C71.7315 30.0986 72.3617 29.896 73.1356 29.896C73.1835 29.896 73.224 29.896 73.2571 29.8996C73.2903 29.8996 73.364 29.907 73.4783 29.9144V32.5638C73.3161 32.5453 73.1687 32.5343 73.0434 32.5269C72.9181 32.5196 72.8149 32.5196 72.7339 32.5196V32.5159Z" fill="white"/>
<path d="M83.9919 26.6644V40.0145H81.4786V38.6437C81.1101 39.2296 80.69 39.657 80.2183 39.9223C79.7466 40.1876 79.1607 40.3203 78.4569 40.3203C77.3034 40.3203 76.3305 39.8523 75.5419 38.9201C74.7533 37.9878 74.359 36.7866 74.359 35.3237C74.359 33.636 74.7459 32.3095 75.5235 31.3404C76.301 30.375 77.3402 29.8886 78.6374 29.8886C79.2344 29.8886 79.7688 30.0212 80.2331 30.2829C80.6974 30.5445 81.077 30.9093 81.3681 31.3773V26.6607H83.9882L83.9919 26.6644ZM77.027 35.1358C77.027 36.0496 77.2076 36.7755 77.5724 37.3209C77.9299 37.8699 78.4753 38.1463 79.2049 38.1463C79.9346 38.1463 80.4947 37.8736 80.8743 37.3282C81.2539 36.7829 81.4455 36.0791 81.4455 35.2168C81.4455 34.0082 81.1396 33.1423 80.5279 32.6227C80.152 32.3095 79.7172 32.1511 79.2233 32.1511C78.4679 32.1511 77.9114 32.4348 77.5577 33.0096C77.2039 33.5808 77.027 34.2919 77.027 35.1358Z" fill="white"/>
<path d="M93.1532 30.5813C93.9271 31.0788 94.373 31.93 94.4872 33.1386H91.9039C91.8671 32.807 91.775 32.5416 91.6239 32.35C91.3401 32 90.8573 31.8231 90.1719 31.8231C89.6081 31.8231 89.2101 31.9115 88.9706 32.0847C88.731 32.2616 88.6131 32.4643 88.6131 32.7001C88.6131 32.9949 88.7384 33.2123 88.9927 33.3449C89.2469 33.485 90.1461 33.7245 91.6865 34.0598C92.7147 34.303 93.4849 34.6678 94.0008 35.1579C94.5093 35.6553 94.7636 36.2744 94.7636 37.0187C94.7636 37.9989 94.3988 38.7985 93.6691 39.4175C92.9394 40.0366 91.8155 40.3461 90.2898 40.3461C88.7642 40.3461 87.5886 40.0181 86.8479 39.3622C86.1072 38.7063 85.735 37.8699 85.735 36.8529H88.3551C88.4104 37.3135 88.5284 37.6377 88.7089 37.833C89.0295 38.1794 89.6228 38.3489 90.4851 38.3489C90.9937 38.3489 91.3954 38.2715 91.6976 38.1205C91.9961 37.9694 92.1471 37.7409 92.1471 37.4388C92.1471 37.1366 92.0255 36.9266 91.786 36.7755C91.5465 36.6244 90.6473 36.3628 89.0922 35.9943C87.9719 35.718 87.1833 35.3679 86.7263 34.9515C86.2657 34.5388 86.0372 33.9492 86.0372 33.1754C86.0372 32.2616 86.3947 31.4767 87.1133 30.8208C87.8282 30.1649 88.8379 29.837 90.1387 29.837C91.4396 29.837 92.3793 30.0802 93.1606 30.5703L93.1532 30.5813Z" fill="white"/>
<path d="M96.6246 37.3136H99.3738V40.0145H96.6246V37.3136Z" fill="#0089DF"/>
<path d="M108.642 30.5814C109.416 31.0788 109.862 31.93 109.976 33.1386H107.393C107.356 32.807 107.264 32.5417 107.113 32.3501C106.829 32 106.346 31.8231 105.661 31.8231C105.097 31.8231 104.699 31.9116 104.459 32.0848C104.22 32.2616 104.102 32.4643 104.102 32.7001C104.102 32.9949 104.227 33.2123 104.481 33.345C104.736 33.485 105.635 33.7245 107.175 34.0598C108.203 34.303 108.973 34.6678 109.489 35.1579C109.998 35.6553 110.252 36.2744 110.252 37.0187C110.252 37.9989 109.887 38.7985 109.158 39.4175C108.428 40.0366 107.304 40.3461 105.778 40.3461C104.253 40.3461 103.077 40.0182 102.337 39.3623C101.596 38.7064 101.227 37.8699 101.227 36.8529H103.847C103.903 37.3135 104.021 37.6378 104.201 37.8331C104.522 38.1794 105.115 38.3489 105.977 38.3489C106.486 38.3489 106.888 38.2716 107.19 38.1205C107.488 37.9694 107.639 37.7409 107.639 37.4388C107.639 37.1366 107.518 36.9266 107.278 36.7755C107.039 36.6245 106.14 36.3628 104.584 35.9943C103.464 35.718 102.676 35.3679 102.219 34.9515C101.758 34.5388 101.53 33.9493 101.53 33.1755C101.53 32.2616 101.887 31.4768 102.606 30.8209C103.32 30.165 104.33 29.837 105.631 29.837C106.932 29.837 107.872 30.0802 108.653 30.5703L108.642 30.5814Z" fill="#0089DF"/>
<path d="M121.094 34.2109V40.0145H118.455V34.0009C118.455 33.4703 118.363 33.0391 118.183 32.7112C117.947 32.2506 117.501 32.0221 116.841 32.0221C116.182 32.0221 115.64 32.2506 115.286 32.7075C114.932 33.1644 114.756 33.8166 114.756 34.6605V40.0108H112.18V26.6902H114.756V31.4141C115.131 30.8393 115.563 30.4377 116.056 30.2129C116.55 29.9881 117.066 29.8739 117.611 29.8739C118.223 29.8739 118.776 29.9807 119.277 30.1908C119.778 30.4008 120.187 30.7251 120.508 31.1599C120.781 31.5284 120.947 31.9079 121.005 32.2985C121.064 32.6891 121.098 33.3266 121.098 34.2072L121.094 34.2109Z" fill="#0089DF"/>
</svg>
